<?xml version="1.0" encoding="utf-8"?>
<!-- Generator: Adobe Illustrator 20.1.0, SVG Export Plug-In . SVG Version: 6.00 Build 0)  -->
<svg version="1.1" id="Layer_1" xmlns="http://www.w3.org/2000/svg" xmlns:xlink="http://www.w3.org/1999/xlink" x="0px" y="0px"
	 viewBox="0 0 68.5 85" style="enable-background:new 0 0 68.5 85;" xml:space="preserve">
<style type="text/css">
	.st0{fill:#3E21CC;}
</style>
<g>
	<polygon class="st0" points="-167.3,14.5 -184.7,37.7 -175.1,37.7 -175.1,58.1 -159,58.1 -159,37.7 -149.3,37.7 	"/>
	<g>
		<path class="st0" d="M-168.4,13.8c-5.8,7.8-11.6,15.5-17.4,23.3c-0.6,0.8,0.2,1.9,1.1,1.9c3.2,0,6.4,0,9.7,0
			c-0.4-0.4-0.8-0.8-1.3-1.3c0,6.8,0,13.6,0,20.4c0,0.7,0.6,1.3,1.3,1.3c5.4,0,10.7,0,16.1,0c0.7,0,1.3-0.6,1.3-1.3
			c0-6.8,0-13.6,0-20.4c-0.4,0.4-0.8,0.8-1.3,1.3c3.2,0,6.4,0,9.7,0c1.2,0,1.5-1.3,0.9-2.1c-6-7.8-12-15.5-18-23.3
			c-1-1.3-2.7,0.5-1.8,1.8c6,7.8,12,15.5,18,23.3c0.3-0.7,0.6-1.4,0.9-2.1c-3.2,0-6.4,0-9.7,0c-0.7,0-1.3,0.6-1.3,1.3
			c0,6.8,0,13.6,0,20.4c0.4-0.4,0.8-0.8,1.3-1.3c-5.4,0-10.7,0-16.1,0c0.4,0.4,0.8,0.8,1.3,1.3c0-6.8,0-13.6,0-20.4
			c0-0.7-0.6-1.3-1.3-1.3c-3.2,0-6.4,0-9.7,0c0.4,0.6,0.7,1.3,1.1,1.9c5.8-7.8,11.6-15.5,17.4-23.3
			C-165.3,13.8-167.5,12.6-168.4,13.8z"/>
	</g>
</g>
<g>
	<polygon class="st0" points="34.3,82.3 3.2,40.7 20.4,40.7 20.4,4.3 49.2,4.3 49.2,40.7 66.5,40.7 	"/>
	<g>
		<path class="st0" d="M35.3,81.6C25,67.8,14.6,53.9,4.3,40.1c-0.4,0.6-0.7,1.3-1.1,1.9c5.8,0,11.5,0,17.3,0c0.7,0,1.3-0.6,1.3-1.3
			c0-12.1,0-24.3,0-36.4c-0.4,0.4-0.8,0.8-1.3,1.3c9.6,0,19.2,0,28.8,0c-0.4-0.4-0.8-0.8-1.3-1.3c0,12.1,0,24.3,0,36.4
			c0,0.7,0.6,1.3,1.3,1.3c5.8,0,11.5,0,17.3,0c-0.3-0.7-0.6-1.4-0.9-2.1C54.9,53.7,44.1,67.5,33.4,81.4c-1,1.3,0.8,3,1.8,1.8
			c10.7-13.9,21.5-27.7,32.2-41.6c0.6-0.8,0.3-2.1-0.9-2.1c-5.8,0-11.5,0-17.3,0c0.4,0.4,0.8,0.8,1.3,1.3c0-12.1,0-24.3,0-36.4
			c0-0.7-0.6-1.3-1.3-1.3c-9.6,0-19.2,0-28.8,0c-0.7,0-1.3,0.6-1.3,1.3c0,12.1,0,24.3,0,36.4c0.4-0.4,0.8-0.8,1.3-1.3
			c-5.8,0-11.5,0-17.3,0c-0.9,0-1.7,1.1-1.1,1.9C12.5,55.2,22.8,69,33.2,82.9C34.1,84.2,36.3,82.9,35.3,81.6z"/>
	</g>
</g>
</svg>
