<?xml version="1.0" encoding="utf-8"?>
<!-- Generator: Adobe Illustrator 20.1.0, SVG Export Plug-In . SVG Version: 6.00 Build 0)  -->
<svg version="1.1" id="Layer_1" xmlns="http://www.w3.org/2000/svg" xmlns:xlink="http://www.w3.org/1999/xlink" x="0px" y="0px"
	 viewBox="0 0 139 139" style="enable-background:new 0 0 139 139;" xml:space="preserve">
<style type="text/css">
	.st0{fill:#3E21CC;}
</style>
<g>
	<g>
		<path class="st0" d="M70,3.1c-38,0-38,38-38,38h15.5c0,0,0-22.5,22.5-22.5S92.5,41,92.5,41H108C108,41,108,3.1,70,3.1z"/>
	</g>
	<g>
		<path class="st0" d="M111.8,41H28.2c-8.4,0-15.2,6.8-15.2,15.2v64.5c0,8.4,6.8,15.2,15.2,15.2h83.5c8.4,0,15.2-6.8,15.2-15.2V56.2
			C127,47.9,120.1,41,111.8,41z M70,106.2c-9.8,0-17.7-7.9-17.7-17.7S60.2,70.8,70,70.8s17.7,7.9,17.7,17.7S79.8,106.2,70,106.2z"/>
	</g>
</g>
</svg>
