<?xml version="1.0" encoding="utf-8"?>
<!-- Generator: Adobe Illustrator 20.1.0, SVG Export Plug-In . SVG Version: 6.00 Build 0)  -->
<svg version="1.1" id="Layer_1" xmlns="http://www.w3.org/2000/svg" xmlns:xlink="http://www.w3.org/1999/xlink" x="0px" y="0px"
	 viewBox="0 0 146 122" style="enable-background:new 0 0 146 122;" xml:space="preserve">
<style type="text/css">
	.st0{fill:#FFFFFF;}
</style>
<g>
	<polygon class="st0" points="72.6,14.7 72.6,14.7 72.6,14.7 	"/>
	<path class="st0" d="M122.8,26.6c0,0,7.9-7.1,6.3-21.2c0,0-3.9,3-6.6,4.7S111,18.6,101,18.7c0,0-3-0.1-7.5-1.2
		c-6.3-1.6-13.3-2.7-20.9-2.8c-7.7,0.1-14.7,1.2-20.9,2.8c-4.5,1.1-7.5,1.2-7.5,1.2c-10-0.2-18.9-6.9-21.5-8.6s-6.6-4.7-6.6-4.7
		c-1.6,14.1,6.3,21.2,6.3,21.2c-13.2,10.6-16.7,22-18,37.7C4.7,75.5,5.8,85.8,12.8,96c0,0,12.4,20.9,59.8,20.9
		c47.1,0,59.8-20.9,59.8-20.9c7-10.3,8-20.5,8.4-31.7C139.6,48.6,136,37.2,122.8,26.6z M42.7,84.4c-11.9,0.1-21.8-9.5-21.7-21
		c0.1-11.5,9.5-20.7,21.2-20.9c11.9-0.2,21.7,9.3,21.6,21C63.8,75,54.3,84.4,42.7,84.4z M72.6,101.2c-0.5,0-1-0.2-1.3-0.6
		c-4.2-5.7-5.8-8.9-7.9-14.3c-1.8-4.5,0.5-8.9,5.7-10.4c0,0,1.6-0.4,3.6-0.4c2,0,3.6,0.4,3.6,0.4c5.2,1.6,7.4,6,5.7,10.4
		c-2.2,5.4-3.8,8.6-7.9,14.3C73.6,101,73.1,101.2,72.6,101.2 M102.5,84.4C90.9,84.4,81.4,75,81.4,63.5c0-11.7,9.8-21.2,21.6-21
		c11.7,0.2,21.1,9.4,21.2,20.9C124.4,74.9,114.4,84.5,102.5,84.4z"/>
</g>
<path class="st0" d="M42.4,46.7c-9.4,0-17.1,7.5-17.1,16.8c0,9.3,7.6,16.8,17.1,16.8c9.4,0,17.1-7.5,17.1-16.8
	C59.4,54.2,51.8,46.7,42.4,46.7z M45.8,75.7c-5.5,0-10-4.6-9.7-10c0.3-5.3,4.6-9.4,9.9-9.2c5.3,0.2,9.4,4.4,9.4,9.7
	C55.3,71.4,51.1,75.6,45.8,75.7z"/>
<path class="st0" d="M85.8,63.5c0,9.3,7.6,16.8,17.1,16.8c9.4,0,17.1-7.5,17.1-16.8c0-9.3-7.6-16.8-17.1-16.8
	C93.4,46.7,85.8,54.2,85.8,63.5z M89.9,66.2c0-5.3,4.1-9.6,9.4-9.7c5.3-0.2,9.6,3.9,9.9,9.2c0.3,5.4-4.2,10.1-9.7,10
	C94.1,75.6,89.9,71.4,89.9,66.2z"/>
</svg>
