<?xml version="1.0" encoding="utf-8"?>
<!-- Generator: Adobe Illustrator 20.1.0, SVG Export Plug-In . SVG Version: 6.00 Build 0)  -->
<svg version="1.1" id="Layer_1" xmlns="http://www.w3.org/2000/svg" xmlns:xlink="http://www.w3.org/1999/xlink" x="0px" y="0px"
	 viewBox="0 0 140.3 181" style="enable-background:new 0 0 140.3 181;" xml:space="preserve">
<style type="text/css">
	.st0{fill:#FFFFFF;}
</style>
<g>
	<path class="st0" d="M137.8,124.9c-0.2-5.1-1.2-10-3.3-14.6c-1.6-3.6-3.8-6.8-6.5-9.7c-1.3-1.4-1.4-2.8-0.5-4.5
		c0.3-0.5,0.6-1.1,1-1.5c2.9-3.7,4.9-7.9,6.3-12.4c1.5-4.8,2.2-9.7,2.5-14.8c0.1-1.7,0.3-3.5,0.2-5.2c-0.2-3.3-0.6-6.6-1.3-9.9
		c-1.2-5.9-3.2-11.5-6.6-16.5c-2.6-3.7-5.7-7-9.2-9.8c-0.2-0.2-0.6-0.3-0.2-0.8c2.9-3.2,4.6-7.1,5.5-11.3c0.6-3,0.7-6.1,0.3-9.2
		c-1.6,1.2-3.2,2.4-4.8,3.5c-3.6,2.6-7.3,5-11.4,6.9c-5.8,2.6-11.7,3.5-17.9,1.7c-4.7-1.3-9.5-2.1-14.3-2.6
		c-5.3-0.5-10.6-0.4-15.9,0.3c-4.3,0.5-8.5,1.5-12.8,2.5c-3.5,0.8-7,1.1-10.6,0.3c-4.8-1.1-9.2-3.2-13.4-5.9c-3-2-6-4.1-8.9-6.3
		c-0.1-0.1-0.3-0.3-0.5-0.2c-0.2,0.1-0.1,0.3-0.1,0.4c-0.3,2.7-0.2,5.3,0.3,8c0.8,4.3,2.4,8.2,5.2,11.5c0.7,0.8,0.7,0.8-0.1,1.5
		c-3.5,2.9-6.6,6.2-9.2,10c-5.3,8-7,17-7.5,26.3C3.9,66.8,4.4,71,5,75.1c1.2,7.3,3.7,14.1,8.3,20c0.3,0.3,0.5,0.7,0.6,1
		c0.9,1.8,0.7,3.1-0.7,4.7c-4.9,5.5-8,11.8-9.1,19.1c-0.6,4.1-0.7,8.2-0.3,12.4c0.2,2.8,0.9,5.4,2.4,7.8c2.5,4.1,6.9,5.9,11.2,3.8
		c0.3-0.2,0.4,0,0.5,0.2c0.5,1,1,1.9,1.6,2.9c2.7,4.2,6.1,7.7,9.8,11c6.5,5.6,13.3,10.8,21,14.5c5,2.4,10.1,4.3,15.5,5.3
		c4,0.7,7.9,0.5,11.8-0.4c6.1-1.5,11.9-3.9,17.4-7c7.1-4,13.4-9,19.3-14.5c3.7-3.4,6.8-7.2,9-11.7c0.2-0.4,0.4-0.2,0.6-0.1
		c3,1.3,5.9,1,8.4-1c2.8-2.2,4.1-5.2,4.8-8.6C138,131.4,138,128.2,137.8,124.9z M44.6,82.1c-9,1.3-17.8-3.1-22.1-11.2
		c-4.5-8.4-2-19.1,5.8-25.2c10.9-8.5,27.2-4.2,32.4,8.5c1,2.5,1.5,5,1.5,7.7C62.3,71.9,54.7,80.6,44.6,82.1z M79.7,84
		c-1.9,5-4.5,9.7-7.7,14c-0.3,0.4-0.5,0.7-1,0.7c-0.2,0.1-0.3,0-0.4-0.1c0,0-0.1,0.1-0.2,0.1c-0.4,0-0.6-0.3-0.9-0.6
		c-3.1-4.2-5.6-8.7-7.6-13.5c-1.9-4.6,0.2-8.8,4.8-10.4c1-0.4,2-0.6,3.1-0.6c0.5-0.1,0.7-0.1,0.7,0.1c0.1-0.3,0.5-0.2,1.2-0.1
		c2.4,0.2,4.4,1,6.2,2.6C80.2,78.1,80.8,81.1,79.7,84z M112.4,78.3c-8.2,5.8-19.5,5.1-26.7-1.6c-10.3-9.7-8.1-26.2,4.4-32.9
		c3.1-1.6,6.5-2.5,10-2.5c9.9,0,18.4,6.7,20.6,16.3C122.5,65.4,119.3,73.5,112.4,78.3z"/>
	<path class="st0" d="M117.5,57.9c-1.8-7.8-9-13.5-17.3-13.5c-1.4,0-2.8,0.2-4.1,0.5c-10.2,2.4-16.2,13-12.5,22.9
		c3.4,9.1,13.6,13.7,22.8,10.3C114.7,75.1,119.4,66.5,117.5,57.9z M96.8,73.7c-5.1,0-9.3-4.2-9.3-9.3c0-5.6,4.6-9.6,9.7-9.5
		c5,0.1,9.2,4.3,9.2,9.5C106.4,69.5,102.1,73.7,96.8,73.7z"/>
	<path class="st0" d="M58.5,58.9c-1.5-8.5-8.8-14.5-17.1-14.5c-2,0-3.6,0.2-5.1,0.6c-11.1,3-16.4,15.6-10.7,25.4
		C29.9,78,39.3,81.2,47.5,78C55.2,75,59.9,67.2,58.5,58.9z M44.2,73.7c-5.2,0-9.5-4.3-9.5-9.4c0-5.3,4.2-9.4,9.7-9.4
		c5.1,0,9.3,4.4,9.3,9.5C53.6,69.6,49.4,73.7,44.2,73.7z"/>
</g>
</svg>
