<?xml version="1.0" encoding="utf-8"?>
<!-- Generator: Adobe Illustrator 20.1.0, SVG Export Plug-In . SVG Version: 6.00 Build 0)  -->
<svg version="1.1" id="Layer_1" xmlns="http://www.w3.org/2000/svg" xmlns:xlink="http://www.w3.org/1999/xlink" x="0px" y="0px"
	 viewBox="0 0 239 194.3" style="enable-background:new 0 0 239 194.3;" xml:space="preserve">
<style type="text/css">
	.st0{opacity:0.85;}
	.st1{fill:#FFFFFF;}
	.st2{fill:none;}
	.st3{fill:#3E21CC;}
</style>
<g class="st0">
	<path class="st1" d="M-355.5,53.4c4.9-7.1,12.1-15,21.6-23.6c6.9-6.3,12-11.6,15.3-15.9c3.3-4.3,4.9-9.2,4.9-14.6
		c0-7.8-3.1-13.9-9.3-18.4c-6.2-4.5-14.4-6.8-24.7-6.8c-9.9,0-18.6,2-26.3,6.1c-7.7,4.1-14.1,9.8-19.4,17.2L-431.6-25
		c8.8-13.4,20.7-23.8,35.8-31.2c15-7.3,32.8-11,53.4-11c24.1,0,43.5,5.1,58.1,15.4c14.6,10.3,21.9,24.6,21.9,42.8
		c0,8.6-1.4,16.2-4.3,22.7c-2.8,6.5-6.3,12-10.4,16.5c-4.1,4.5-9.4,9.7-15.9,15.6c-7.8,6.9-13.4,12.8-17,17.5
		c-3.6,4.7-5.4,10.4-5.4,17.2h-47.6C-362.9,69.6-360.4,60.6-355.5,53.4z M-360.6,151.2c-5.8-5.6-8.7-12.3-8.7-20.3
		c0-8,2.8-14.6,8.5-20c5.7-5.4,12.9-8,21.7-8c8.8,0,16.1,2.7,21.7,8c5.7,5.4,8.5,12,8.5,20c0,8-2.9,14.8-8.7,20.3
		c-5.8,5.6-13,8.3-21.6,8.3C-347.6,159.6-354.8,156.8-360.6,151.2z"/>
</g>
<g class="st0">
	<path class="st2" d="M394.6,90c-8.8-0.2-16,6.5-16.4,15.3c-0.5,9,7,16.7,16.1,16.6c8.8,0,15.9-7,15.9-15.8
		C410.2,97.4,403.3,90.3,394.6,90z"/>
	<path class="st2" d="M418.2,93.1c-2.3-7.7-8.8-17.4-20.2-24.9c-3.1-0.8-6.3-1.2-9.6-1.2c-19.5,0.3-35,15.6-35.2,34.7
		c-0.2,19,16.3,34.8,36,34.8c19.3-0.1,35-15.6,35-34.6c0-5.9-1.5-11.5-4.2-16.5c0.8,1.6,1.4,3.2,1.8,4.7L418.2,93.1z M388.7,131.2
		c-16.5,0-30-13.2-30-29.4c0-16.2,13.4-29.4,30-29.4s30,13.2,30,29.4C418.6,118,405.2,131.2,388.7,131.2z"/>
	<path class="st2" d="M460.4,92.1l-4.6-2.1c0.6-1.9,1.4-4,2.5-6.1c-3.2,5.2-5.1,11.4-5,17.9c0.1,19,15.8,34.5,35,34.6
		c19.8,0.1,36.2-15.8,36-34.8c-0.2-19-15.7-34.4-35.2-34.7c-3.5-0.1-7,0.4-10.2,1.3C468.6,75.7,462.6,84.8,460.4,92.1z M518.8,101.8
		c0,16.2-13.4,29.4-30,29.4c-16.5,0-30-13.2-30-29.4c0-16.2,13.4-29.4,30-29.4C505.4,72.4,518.8,85.5,518.8,101.8z"/>
	<path class="st2" d="M483.3,122c9.1,0,16.6-7.7,16.1-16.6c-0.5-8.8-7.7-15.5-16.4-15.3c-8.8,0.2-15.6,7.3-15.6,16.2
		C467.4,114.9,474.5,122,483.3,122z"/>
	<path class="st2" d="M432.8,122.3c-8.6,2.6-12.3,9.9-9.4,17.3c3.6,9,6.2,14.2,13.2,23.7c0.5,0.7,1.4,1,2.2,1"/>
	<path class="st2" d="M438.7,164.3c0.8,0,1.7-0.3,2.2-1c6.9-9.5,9.6-14.7,13.2-23.7c2.9-7.4-0.8-14.7-9.4-17.3"/>
	<path class="st1" d="M526.3,44.3c-4.6,4.5-12.2,10.5-26.1,14.3c-8.6,2.3-15.7,6-21.2,9.9c3.2-0.9,6.7-1.4,10.2-1.3
		c19.5,0.3,35,15.6,35.2,34.7c0.2,19-16.3,34.8-36,34.8c-19.3-0.1-35-15.6-35-34.6c0-6.5,1.8-12.7,5-17.9
		c5.4-10.4,17.1-23.8,36.4-29.1c14.4-4,22.9-9.6,27.4-14.2c0,0-0.1-0.1-0.1-0.1c0,0,13.1-11.8,10.4-35.2c0,0-6.5,4.9-10.9,7.9
		c-4.4,2.9-19.1,14-35.7,14.3c0,0-4.9-0.1-12.4-2c-10.4-2.6-22-4.5-34.7-4.6c-12.7,0.1-24.3,2-34.7,4.6c-7.5,1.9-12.4,2-12.4,2
		c-16.6-0.3-31.3-11.4-35.7-14.3c-4.4-2.9-10.9-7.9-10.9-7.9c-2.6,23.4,10.4,35.2,10.4,35.2c0,0,0,0-0.1,0.1
		c4.5,4.6,13,11.3,27.5,15.2c20.2,5.6,32.1,18.8,37.1,29.5c2.7,4.9,4.2,10.5,4.2,16.5c-0.1,19-15.8,34.5-35,34.6
		c-19.8,0.1-36.2-15.8-36-34.8c0.2-19,15.7-34.4,35.2-34.7c3.3-0.1,6.6,0.4,9.6,1.2c-5.2-3.4-11.4-6.3-18.7-8.3
		c-15-4.1-23.7-11.2-28-15.8c-18.4,16.6-23.7,34.6-25.7,58.9c0.6,18.6,2.3,35.6,13.9,52.6c0,0,19.1,34.6,99.2,34.6
		c80.1,0,99.2-34.6,99.2-34.6c11.6-17,13.3-34,13.9-52.6C549.9,78.8,544.7,60.9,526.3,44.3z M438.7,164.3c-0.8,0-1.7-0.3-2.2-1
		c-6.9-9.5-9.6-14.7-13.2-23.7c-2.9-7.4,0.8-14.7,9.4-17.3c0,0,5.8-2.1,12,0c8.5,2.9,12.3,9.9,9.4,17.3c-3.6,9-6.2,14.2-13.2,23.7
		C440.4,164,439.6,164.3,438.7,164.3"/>
	<path class="st1" d="M388.7,72.4c-16.5,0-30,13.2-30,29.4c0,16.2,13.4,29.4,30,29.4s30-13.2,30-29.4
		C418.6,85.5,405.2,72.4,388.7,72.4z M394.2,122c-9.1,0-16.6-7.7-16.1-16.6c0.5-8.8,7.7-15.5,16.4-15.3c8.8,0.2,15.6,7.3,15.6,16.2
		C410.1,114.9,403,122,394.2,122z"/>
	<path class="st1" d="M458.9,101.8c0,16.2,13.4,29.4,30,29.4c16.5,0,30-13.2,30-29.4c0-16.2-13.4-29.4-30-29.4
		C472.3,72.4,458.9,85.5,458.9,101.8z M482.9,90c8.8-0.2,16,6.5,16.4,15.3c0.5,9-7,16.7-16.1,16.6c-8.8,0-15.9-7-15.9-15.8
		C467.3,97.4,474.2,90.3,482.9,90z"/>
</g>
<g>
	<path class="st2" d="M402.2,259.7c-2.6-0.6-5.3-0.9-8.1-0.8c-19.5,0.3-35,15.6-35.2,34.7c-0.2,19,16.3,34.8,36,34.8
		c19.3-0.1,35-15.6,35-34.6c0-4.6-0.9-8.9-2.5-12.9l-4.6,4C420.5,277,413.9,267.1,402.2,259.7z M394.4,321.3
		c-15.6,0-28.3-12.4-28.3-27.8s12.7-27.8,28.3-27.8s28.3,12.4,28.3,27.8S410,321.3,394.4,321.3z"/>
	<path class="st2" d="M489,313.7c9.1,0,16.6-7.7,16.1-16.6c-0.5-8.8-7.7-15.5-16.4-15.3c-8.8,0.2-15.6,7.3-15.6,16.2
		C473.1,306.7,480.2,313.7,489,313.7z"/>
	<path class="st2" d="M400.3,281.8c-8.8-0.2-16,6.5-16.4,15.3c-0.5,9,7,16.7,16.1,16.6c8.8,0,15.9-7,15.9-15.8
		C415.9,289.1,409.1,282,400.3,281.8z"/>
	<path class="st2" d="M466.5,284.8l-4.6-4.1c0.3-1,0.7-2.1,1.1-3.1c-2.6,4.8-4,10.3-4,16c0.1,19,15.8,34.5,35,34.6
		c19.8,0.1,36.2-15.8,36-34.8c-0.2-19-15.7-34.4-35.2-34.7c-2.6,0-5.2,0.2-7.6,0.7C475.6,267,468.9,277,466.5,284.8z M522.9,293.6
		c0,15.3-12.7,27.8-28.3,27.8c-15.6,0-28.3-12.4-28.3-27.8s12.7-27.8,28.3-27.8C510.2,265.8,522.9,278.2,522.9,293.6z"/>
	<path class="st2" d="M450.5,314c0,0-2.7-0.7-6-0.7c-3.3,0-6,0.7-6,0.7c-8.6,2.6-12.3,9.9-9.4,17.3c3.6,9,6.2,14.2,13.2,23.7
		c0.5,0.7,1.4,1,2.2,1h0c0.8,0,1.7-0.3,2.2-1c6.9-9.5,9.6-14.7,13.2-23.7C462.8,323.9,459.1,316.6,450.5,314z"/>
	<path class="st1" d="M532.7,236.6c-4.5,4.5-13,11.1-27.3,15c-7,1.9-13,4.7-18.1,7.9c2.5-0.5,5-0.7,7.6-0.7
		c19.5,0.3,35,15.6,35.2,34.7c0.2,19-16.3,34.8-36,34.8c-19.3-0.1-35-15.6-35-34.6c0-5.8,1.4-11.2,4-16c4.5-10.8,16.6-24.2,37.8-30
		c14.2-3.9,22.7-10.4,27.2-15c-0.1-0.1-0.2-0.1-0.3-0.2c0,0,13.1-11.8,10.4-35.2c0,0-6.5,4.9-10.9,7.9c-4.4,2.9-19.1,14-35.7,14.3
		c0,0-4.9-0.1-12.4-2c-10.4-2.6-22-4.5-34.7-4.6c-12.7,0.1-24.3,2-34.7,4.6c-7.5,1.9-12.4,2-12.4,2c-16.6-0.3-31.3-11.4-35.7-14.3
		c-4.4-2.9-10.9-7.9-10.9-7.9c-2.6,23.4,10.4,35.2,10.4,35.2c0,0,0,0-0.1,0.1c4.5,4.5,13,11.2,27.4,15.1c23.3,6.4,35.5,22,38.9,33.2
		l0,0c1.6,4,2.5,8.3,2.5,12.9c-0.1,19-15.8,34.5-35,34.6c-19.8,0.1-36.2-15.8-36-34.8c0.2-19,15.7-34.4,35.2-34.7
		c2.8,0,5.5,1.2,8.1,1.8c-5.1-3.3-11.2-7.1-18.3-9c-14.4-4-23-9.6-27.4-14.2c-18,16.5-23.2,33.4-25.1,57.4
		c0.6,18.6,2.3,35.6,13.9,52.6c0,0,20.6,34.6,99.2,34.6c78.4,0,99.2-34.6,99.2-34.6c11.6-17,13.3-34,13.9-52.6
		C555.7,270.9,550.5,253,532.7,236.6z M459.9,331.3c-3.6,9-6.2,14.2-13.2,23.7c-0.5,0.7-1.4,1-2.2,1h0c-0.8,0-1.7-0.3-2.2-1
		c-6.9-9.5-9.6-14.7-13.2-23.7c-2.9-7.4,0.8-14.7,9.4-17.3c0,0,2.7-0.7,6-0.7c3.3,0,6,0.7,6,0.7
		C459.1,316.6,462.8,323.9,459.9,331.3z"/>
	<path class="st1" d="M394.4,265.8c-15.6,0-28.3,12.4-28.3,27.8s12.7,27.8,28.3,27.8s28.3-12.4,28.3-27.8S410,265.8,394.4,265.8z
		 M400,313.7c-9.1,0-16.6-7.7-16.1-16.6c0.5-8.8,7.7-15.5,16.4-15.3c8.8,0.2,15.6,7.3,15.6,16.2C415.9,306.7,408.8,313.7,400,313.7z
		"/>
	<path class="st1" d="M466.3,293.6c0,15.3,12.7,27.8,28.3,27.8c15.6,0,28.3-12.4,28.3-27.8s-12.7-27.8-28.3-27.8
		C479,265.8,466.3,278.2,466.3,293.6z M488.7,281.8c8.8-0.2,16,6.5,16.4,15.3c0.5,9-7,16.7-16.1,16.6c-8.8,0-15.9-7-15.9-15.8
		C473.1,289.1,479.9,282,488.7,281.8z"/>
</g>
<rect x="-242.5" y="-690.4" class="st3" width="755.1" height="409.4"/>
<path class="st2" d="M92.8,302.1c-2.6-0.6-5.3-0.9-8.1-0.8c-19.5,0.3-35,15.6-35.2,34.7c-0.2,19,16.3,34.8,36,34.8
	c19.3-0.1,35-15.6,35-34.6c0-4.6-0.9-8.9-2.5-12.9l-4.6,4C111.1,319.5,104.4,309.6,92.8,302.1z M85,363.8
	c-15.6,0-28.3-12.4-28.3-27.8s12.7-27.8,28.3-27.8s28.3,12.4,28.3,27.8S100.6,363.8,85,363.8z"/>
<path class="st2" d="M179.6,356.2c9.1,0,16.6-7.7,16.1-16.6c-0.5-8.8-7.7-15.5-16.4-15.3c-8.8,0.2-15.6,7.3-15.6,16.2
	C163.7,349.2,170.8,356.2,179.6,356.2z"/>
<path class="st2" d="M90.9,324.3c-8.8-0.2-16,6.5-16.4,15.3c-0.5,9,7,16.7,16.1,16.6c8.8,0,15.9-7,15.9-15.8
	C106.5,331.6,99.6,324.5,90.9,324.3z"/>
<path class="st2" d="M157.1,327.3l-4.6-4.1c0.3-1,0.7-2.1,1.1-3.1c-2.6,4.8-4,10.3-4,16c0.1,19,15.8,34.5,35,34.6
	c19.8,0.1,36.2-15.8,36-34.8c-0.2-19-15.7-34.4-35.2-34.7c-2.6,0-5.2,0.2-7.6,0.7C166.1,309.5,159.4,319.5,157.1,327.3z M213.4,336
	c0,15.3-12.7,27.8-28.3,27.8c-15.6,0-28.3-12.4-28.3-27.8s12.7-27.8,28.3-27.8C200.8,308.3,213.4,320.7,213.4,336z"/>
<path class="st2" d="M141,356.5c0,0-2.7-0.7-6-0.7c-3.3,0-6,0.7-6,0.7c-8.6,2.6-12.3,9.9-9.4,17.3c3.6,9,6.2,14.2,13.2,23.7
	c0.5,0.7,1.4,1,2.2,1h0c0.8,0,1.7-0.3,2.2-1c6.9-9.5,9.6-14.7,13.2-23.7C153.4,366.4,149.6,359.1,141,356.5z"/>
<path class="st3" d="M223.2,279.1c-4.5,4.5-13,11.1-27.3,15c-7,1.9-13,4.7-18.1,7.9c2.5-0.5,5-0.7,7.6-0.7
	c19.5,0.3,35,15.6,35.2,34.7c0.2,19-16.3,34.8-36,34.8c-19.3-0.1-35-15.6-35-34.6c0-5.8,1.4-11.2,4-16c4.5-10.8,16.6-24.2,37.8-30
	c14.2-3.9,22.7-10.4,27.2-15c-0.1-0.1-0.2-0.1-0.3-0.2c0,0,13.1-11.8,10.4-35.2c0,0-6.5,4.9-10.9,7.9c-4.4,2.9-19.1,14-35.7,14.3
	c0,0-4.9-0.1-12.4-2c-10.4-2.6-22-4.5-34.7-4.6c-12.7,0.1-24.3,2-34.7,4.6c-7.5,1.9-12.4,2-12.4,2c-16.6-0.3-31.3-11.4-35.7-14.3
	c-4.4-2.9-10.9-7.9-10.9-7.9c-2.6,23.4,10.4,35.2,10.4,35.2c0,0,0,0-0.1,0.1c4.5,4.5,13,11.2,27.4,15.1c23.3,6.4,35.5,22,38.9,33.2
	l0,0c1.6,4,2.5,8.3,2.5,12.9c-0.1,19-15.8,34.5-35,34.6c-19.8,0.1-36.2-15.8-36-34.8c0.2-19,15.7-34.4,35.2-34.7
	c2.8,0,5.5,1.2,8.1,1.8c-5.1-3.3-11.2-7.1-18.3-9c-14.4-4-23-9.6-27.4-14.2c-18,16.5-23.2,33.4-25.1,57.4
	c0.6,18.6,2.3,35.6,13.9,52.6c0,0,20.6,34.6,99.2,34.6c78.4,0,99.2-34.6,99.2-34.6c11.6-17,13.3-34,13.9-52.6
	C246.3,313.4,241.1,295.5,223.2,279.1z M150.4,373.8c-3.6,9-6.2,14.2-13.2,23.7c-0.5,0.7-1.4,1-2.2,1h0c-0.8,0-1.7-0.3-2.2-1
	c-6.9-9.5-9.6-14.7-13.2-23.7c-2.9-7.4,0.8-14.7,9.4-17.3c0,0,2.7-0.7,6-0.7c3.3,0,6,0.7,6,0.7C149.6,359.1,153.4,366.4,150.4,373.8
	z"/>
<circle class="st3" cx="90.4" cy="340.2" r="16"/>
<circle class="st3" cx="179.7" cy="340.2" r="16"/>
<g>
	<path class="st2" d="M79.4,68.9c-2.6-0.6-5.3-0.9-8.1-0.8c-19.5,0.3-35,15.6-35.2,34.7c-0.2,19,16.3,34.8,36,34.8
		c19.3-0.1,35-15.6,35-34.6c0-4.6-0.9-8.9-2.5-12.9l-4.6,4C97.7,86.2,91.1,76.3,79.4,68.9z M71.6,130.5c-15.6,0-28.3-12.4-28.3-27.8
		S56,75,71.6,75s28.3,12.4,28.3,27.8S87.2,130.5,71.6,130.5z"/>
	<path class="st2" d="M166.2,122.9c9.1,0,16.6-7.7,16.1-16.6c-0.5-8.8-7.7-15.5-16.4-15.3c-8.8,0.2-15.6,7.3-15.6,16.2
		C150.4,115.9,157.4,122.9,166.2,122.9z"/>
	<path class="st2" d="M77.6,91c-8.8-0.2-16,6.5-16.4,15.3c-0.5,9,7,16.7,16.1,16.6c8.8,0,15.9-7,15.9-15.8
		C93.1,98.4,86.3,91.3,77.6,91z"/>
	<path class="st2" d="M143.7,94l-4.6-4.1c0.3-1,0.7-2.1,1.1-3.1c-2.6,4.8-4,10.3-4,16c0.1,19,15.8,34.5,35,34.6
		c19.8,0.1,36.2-15.8,36-34.8c-0.2-19-15.7-34.4-35.2-34.7c-2.6,0-5.2,0.2-7.6,0.7C152.8,76.2,146.1,86.2,143.7,94z M200.1,102.8
		c0,15.3-12.7,27.8-28.3,27.8c-15.6,0-28.3-12.4-28.3-27.8S156.2,75,171.8,75C187.4,75,200.1,87.4,200.1,102.8z"/>
	<path class="st2" d="M127.7,123.2c0,0-2.7-0.7-6-0.7c-3.3,0-6,0.7-6,0.7c-8.6,2.6-12.3,9.9-9.4,17.3c3.6,9,6.2,14.2,13.2,23.7
		c0.5,0.7,1.4,1,2.2,1h0c0.8,0,1.7-0.3,2.2-1c6.9-9.5,9.6-14.7,13.2-23.7C140,133.1,136.3,125.8,127.7,123.2z"/>
	<path class="st1" d="M209.9,45.8c-4.5,4.5-13,12.1-27.3,16c-7,1.9-13,3.7-18.1,6.9c2.5-0.5,5-0.7,7.6-0.7
		c19.5,0.3,35,15.6,35.2,34.7c0.2,19-16.3,34.8-36,34.8c-19.3-0.1-35-15.6-35-34.6c0-5.8,1.4-11.2,4-16c4.5-10.8,16.6-24.2,37.8-30
		c14.2-3.9,22.7-10.4,27.2-15c-0.1-0.1-0.2-0.1-0.3-0.2c0,0,13.1-11.8,10.4-35.2c0,0-6.5,4.9-10.9,7.9c-4.4,2.9-19.1,14-35.7,14.3
		c0,0-4.9-0.1-12.4-2c-10.4-2.6-22-4.5-34.7-4.6c-12.7,0.1-24.3,2-34.7,4.6c-7.5,1.9-12.4,2-12.4,2C58,28.3,43.3,17.2,38.9,14.3
		C34.5,11.3,28,6.4,28,6.4c-2.6,23.4,10.4,35.2,10.4,35.2c0,0,0,0-0.1,0.1c4.5,4.5,13,11.2,27.4,15.1c23.3,6.4,35.5,22,38.9,33.2
		l0,0c1.6,4,2.5,8.3,2.5,12.9c-0.1,19-15.8,34.5-35,34.6c-19.8,0.1-36.2-15.8-36-34.8c0.2-19,15.7-34.4,35.2-34.7
		c2.8,0,5.5,1.2,8.1,1.8c-5.1-3.3-11.2-6.1-18.3-8c-14.4-4-23-10.6-27.4-15.2C15.7,63.1,10.5,80,8.6,104.1
		c0.6,18.6,2.3,35.6,13.9,52.6c0,0,20.6,34.6,99.2,34.6c78.4,0,99.2-34.6,99.2-34.6c11.6-17,13.3-34,13.9-52.6
		C232.9,80.1,227.8,62.2,209.9,45.8z M137.1,140.5c-3.6,9-6.2,14.2-13.2,23.7c-0.5,0.7-1.4,1-2.2,1h0c-0.8,0-1.7-0.3-2.2-1
		c-6.9-9.5-9.6-14.7-13.2-23.7c-2.9-7.4,0.8-14.7,9.4-17.3c0,0,2.7-0.7,6-0.7c3.3,0,6,0.7,6,0.7C136.3,125.8,140,133.1,137.1,140.5z
		"/>
	<path class="st1" d="M71.6,75C56,75,43.3,87.4,43.3,102.8s12.7,27.8,28.3,27.8s28.3-12.4,28.3-27.8S87.2,75,71.6,75z M77.2,122.9
		c-9.1,0-16.6-7.7-16.1-16.6c0.5-8.8,7.7-15.5,16.4-15.3c8.8,0.2,15.6,7.3,15.6,16.2C93.1,115.9,86,122.9,77.2,122.9z"/>
	<path class="st1" d="M143.5,102.8c0,15.3,12.7,27.8,28.3,27.8c15.6,0,28.3-12.4,28.3-27.8S187.4,75,171.8,75
		C156.2,75,143.5,87.4,143.5,102.8z M165.9,91c8.8-0.2,16,6.5,16.4,15.3c0.5,9-7,16.7-16.1,16.6c-8.8,0-15.9-7-15.9-15.8
		C150.3,98.4,157.1,91.3,165.9,91z"/>
</g>
</svg>
