<?xml version="1.0" encoding="utf-8"?>
<!-- Generator: Adobe Illustrator 20.1.0, SVG Export Plug-In . SVG Version: 6.00 Build 0)  -->
<svg version="1.1" id="Layer_1" xmlns="http://www.w3.org/2000/svg" xmlns:xlink="http://www.w3.org/1999/xlink" x="0px" y="0px"
	 viewBox="0 0 239 194.3" style="enable-background:new 0 0 239 194.3;" xml:space="preserve">
<style type="text/css">
	.st0{opacity:0.85;}
	.st1{fill:#FFFFFF;}
	.st2{fill:none;}
</style>
<g class="st0">
	<path class="st1" d="M-355.5,53.4c4.9-7.1,12.1-15,21.6-23.6c6.9-6.3,12-11.6,15.3-15.9c3.3-4.3,4.9-9.2,4.9-14.6
		c0-7.8-3.1-13.9-9.3-18.4c-6.2-4.5-14.4-6.8-24.7-6.8c-9.9,0-18.6,2-26.3,6.1c-7.7,4.1-14.1,9.8-19.4,17.2L-431.6-25
		c8.8-13.4,20.7-23.8,35.8-31.2c15-7.3,32.8-11,53.4-11c24.1,0,43.5,5.1,58.1,15.4c14.6,10.3,21.9,24.6,21.9,42.8
		c0,8.6-1.4,16.2-4.3,22.7c-2.8,6.5-6.3,12-10.4,16.5c-4.1,4.5-9.4,9.7-15.9,15.6c-7.8,6.9-13.4,12.8-17,17.5
		c-3.6,4.7-5.4,10.4-5.4,17.2h-47.6C-362.9,69.6-360.4,60.6-355.5,53.4z M-360.6,151.2c-5.8-5.6-8.7-12.3-8.7-20.3
		c0-8,2.8-14.6,8.5-20c5.7-5.4,12.9-8,21.7-8c8.8,0,16.1,2.7,21.7,8c5.7,5.4,8.5,12,8.5,20c0,8-2.9,14.8-8.7,20.3
		c-5.8,5.6-13,8.3-21.6,8.3C-347.6,159.6-354.8,156.8-360.6,151.2z"/>
</g>
<g class="st0">
	<path class="st2" d="M76,90c-8.8-0.2-16,6.5-16.4,15.3c-0.5,9,7,16.7,16.1,16.6c8.8,0,15.9-7,15.9-15.8C91.6,97.4,84.7,90.3,76,90z
		"/>
	<path class="st2" d="M99.6,93.1c-2.3-7.7-8.8-17.4-20.2-24.9c-3.1-0.8-6.3-1.2-9.6-1.2c-19.5,0.3-35,15.6-35.2,34.7
		c-0.2,19,16.3,34.8,36,34.8c19.3-0.1,35-15.6,35-34.6c0-5.9-1.5-11.5-4.2-16.5c0.8,1.6,1.4,3.2,1.8,4.7L99.6,93.1z M70.1,131.2
		c-16.5,0-30-13.2-30-29.4c0-16.2,13.4-29.4,30-29.4s30,13.2,30,29.4C100,118,86.6,131.2,70.1,131.2z"/>
	<path class="st2" d="M141.8,92.1l-4.6-2.1c0.6-1.9,1.4-4,2.5-6.1c-3.2,5.2-5.1,11.4-5,17.9c0.1,19,15.8,34.5,35,34.6
		c19.8,0.1,36.2-15.8,36-34.8c-0.2-19-15.7-34.4-35.2-34.7c-3.5-0.1-7,0.4-10.2,1.3C150,75.7,144,84.8,141.8,92.1z M200.2,101.8
		c0,16.2-13.4,29.4-30,29.4c-16.5,0-30-13.2-30-29.4c0-16.2,13.4-29.4,30-29.4C186.8,72.4,200.2,85.5,200.2,101.8z"/>
	<path class="st2" d="M164.7,122c9.1,0,16.6-7.7,16.1-16.6c-0.5-8.8-7.7-15.5-16.4-15.3c-8.8,0.2-15.6,7.3-15.6,16.2
		C148.8,114.9,155.9,122,164.7,122z"/>
	<path class="st2" d="M114.2,122.3c-8.6,2.6-12.3,9.9-9.4,17.3c3.6,9,6.2,14.2,13.2,23.7c0.5,0.7,1.4,1,2.2,1"/>
	<path class="st2" d="M120.2,164.3c0.8,0,1.7-0.3,2.2-1c6.9-9.5,9.6-14.7,13.2-23.7c2.9-7.4-0.8-14.7-9.4-17.3"/>
	<path class="st1" d="M207.7,44.3c-4.6,4.5-12.2,10.5-26.1,14.3c-8.6,2.3-15.7,6-21.2,9.9c3.2-0.9,6.7-1.4,10.2-1.3
		c19.5,0.3,35,15.6,35.2,34.7c0.2,19-16.3,34.8-36,34.8c-19.3-0.1-35-15.6-35-34.6c0-6.5,1.8-12.7,5-17.9
		c5.4-10.4,17.1-23.8,36.4-29.1c14.4-4,22.9-9.6,27.4-14.2c0,0-0.1-0.1-0.1-0.1c0,0,13.1-11.8,10.4-35.2c0,0-6.5,4.9-10.9,7.9
		c-4.4,2.9-19.1,14-35.7,14.3c0,0-4.9-0.1-12.4-2c-10.4-2.6-22-4.5-34.7-4.6c-12.7,0.1-24.3,2-34.7,4.6c-7.5,1.9-12.4,2-12.4,2
		c-16.6-0.3-31.3-11.4-35.7-14.3c-4.4-2.9-10.9-7.9-10.9-7.9c-2.6,23.4,10.4,35.2,10.4,35.2c0,0,0,0-0.1,0.1
		c4.5,4.6,13,11.3,27.5,15.2c20.2,5.6,32.1,18.8,37.1,29.5c2.7,4.9,4.2,10.5,4.2,16.5c-0.1,19-15.8,34.5-35,34.6
		c-19.8,0.1-36.2-15.8-36-34.8c0.2-19,15.7-34.4,35.2-34.7c3.3-0.1,6.6,0.4,9.6,1.2C74.2,64.9,68,62,60.7,60
		c-15-4.1-23.7-11.2-28-15.8C14.3,60.8,9,78.8,7.1,103.1c0.6,18.6,2.3,35.6,13.9,52.6c0,0,19.1,34.6,99.2,34.6
		c80.1,0,99.2-34.6,99.2-34.6c11.6-17,13.3-34,13.9-52.6C231.3,78.8,226.1,60.9,207.7,44.3z M120.2,164.3c-0.8,0-1.7-0.3-2.2-1
		c-6.9-9.5-9.6-14.7-13.2-23.7c-2.9-7.4,0.8-14.7,9.4-17.3c0,0,5.8-2.1,12,0c8.5,2.9,12.3,9.9,9.4,17.3c-3.6,9-6.2,14.2-13.2,23.7
		C121.8,164,121,164.3,120.2,164.3"/>
	<path class="st1" d="M70.1,72.4c-16.5,0-30,13.2-30,29.4c0,16.2,13.4,29.4,30,29.4s30-13.2,30-29.4C100,85.5,86.6,72.4,70.1,72.4z
		 M75.6,122c-9.1,0-16.6-7.7-16.1-16.6C60,96.5,67.2,89.8,76,90c8.8,0.2,15.6,7.3,15.6,16.2C91.5,114.9,84.4,122,75.6,122z"/>
	<path class="st1" d="M140.3,101.8c0,16.2,13.4,29.4,30,29.4c16.5,0,30-13.2,30-29.4c0-16.2-13.4-29.4-30-29.4
		C153.7,72.4,140.3,85.5,140.3,101.8z M164.3,90c8.8-0.2,16,6.5,16.4,15.3c0.5,9-7,16.7-16.1,16.6c-8.8,0-15.9-7-15.9-15.8
		C148.8,97.4,155.6,90.3,164.3,90z"/>
</g>
</svg>
