<?xml version="1.0" encoding="utf-8"?>
<!-- Generator: Adobe Illustrator 20.1.0, SVG Export Plug-In . SVG Version: 6.00 Build 0)  -->
<svg version="1.1" id="Layer_1" xmlns="http://www.w3.org/2000/svg" xmlns:xlink="http://www.w3.org/1999/xlink" x="0px" y="0px"
	 viewBox="0 0 178 178" style="enable-background:new 0 0 178 178;" xml:space="preserve">
<style type="text/css">
	.st0{fill:#3E21CC;}
</style>
<path class="st0" d="M115.6,84.3c5.3-0.2,9.6,3.9,9.9,9.2c0.3,5.4-4.2,10.1-9.7,10c-5.3,0-9.6-4.2-9.6-9.5
	C106.2,88.7,110.4,84.4,115.6,84.3z"/>
<g>
	<polygon class="st0" points="89,42.6 89,42.6 89,42.6 	"/>
	<path class="st0" d="M139.2,54.5c0,0,7.9-7.1,6.3-21.2c0,0-3.9,3-6.6,4.7s-11.5,8.5-21.5,8.6c0,0-3-0.1-7.5-1.2
		c-6.3-1.6-13.3-2.7-20.9-2.8c-7.7,0.1-14.7,1.2-20.9,2.8c-4.5,1.1-7.5,1.2-7.5,1.2c-10-0.2-18.9-6.9-21.5-8.6s-6.6-4.7-6.6-4.7
		c-1.6,14.1,6.3,21.2,6.3,21.2c-13.2,10.6-16.7,22-18,37.7c0.4,11.2,1.4,21.5,8.4,31.7c0,0,12.4,20.9,59.8,20.9
		c47.1,0,59.8-20.9,59.8-20.9c7-10.3,8-20.5,8.4-31.7C156,76.5,152.4,65.1,139.2,54.5z M59.1,112.3c-11.9,0.1-21.8-9.5-21.7-21
		c0.1-11.5,9.5-20.7,21.2-20.9c11.9-0.2,21.7,9.3,21.6,21C80.2,102.9,70.7,112.3,59.1,112.3z M87.7,128.5c-4.2-5.7-5.8-8.9-7.9-14.3
		c-1.8-4.5,0.5-8.9,5.7-10.4c1.1-0.3,2.4-0.5,3.6-0.5l0,25.8C88.5,129.1,88,128.9,87.7,128.5z M98.3,114.1
		c-2.2,5.4-3.8,8.6-7.9,14.3c-0.3,0.4-0.8,0.6-1.3,0.6l0-25.8c1.2,0,2.5,0.1,3.6,0.5C97.8,105.3,100,109.7,98.3,114.1z M118.9,112.3
		c-11.6-0.1-21.1-9.4-21.1-20.9c0-11.7,9.8-21.2,21.6-21c11.7,0.2,21.1,9.4,21.2,20.9C140.8,102.8,130.8,112.4,118.9,112.3z"/>
</g>
<path class="st0" d="M62.4,84.3c-5.3-0.2-9.6,3.9-9.9,9.2c-0.3,5.4,4.2,10.1,9.7,10c5.3,0,9.6-4.2,9.6-9.5
	C71.8,88.7,67.6,84.4,62.4,84.3z"/>
</svg>
