<?xml version="1.0" encoding="utf-8"?>
<!-- Generator: Adobe Illustrator 20.1.0, SVG Export Plug-In . SVG Version: 6.00 Build 0)  -->
<svg version="1.1" id="Layer_1" xmlns="http://www.w3.org/2000/svg" xmlns:xlink="http://www.w3.org/1999/xlink" x="0px" y="0px"
	 viewBox="0 0 178 235" style="enable-background:new 0 0 178 235;" xml:space="preserve">
<style type="text/css">
	.st0{opacity:0.85;}
	.st1{fill:#FFFFFF;}
	.st2{fill:none;}
</style>
<g class="st0">
	<path class="st1" d="M80.5,125.1c4.9-7.1,12.1-15,21.6-23.6c6.9-6.3,12-11.6,15.3-15.9c3.3-4.3,4.9-9.2,4.9-14.6
		c0-7.8-3.1-13.9-9.3-18.4c-6.2-4.5-14.4-6.8-24.7-6.8c-9.9,0-18.6,2-26.3,6.1c-7.7,4.1-14.1,9.8-19.4,17.2L4.4,46.7
		c8.8-13.4,20.7-23.8,35.8-31.2c15-7.3,32.8-11,53.4-11c24.1,0,43.5,5.1,58.1,15.4c14.6,10.3,21.9,24.6,21.9,42.8
		c0,8.6-1.4,16.2-4.3,22.7c-2.8,6.5-6.3,12-10.4,16.5c-4.1,4.5-9.4,9.7-15.9,15.6c-7.8,6.9-13.4,12.8-17,17.5
		c-3.6,4.7-5.4,10.4-5.4,17.2H73.1C73.1,141.3,75.6,132.3,80.5,125.1z M75.4,222.9c-5.8-5.6-8.7-12.3-8.7-20.3c0-8,2.8-14.6,8.5-20
		c5.7-5.4,12.9-8,21.7-8c8.8,0,16.1,2.7,21.7,8c5.7,5.4,8.5,12,8.5,20c0,8-2.9,14.8-8.7,20.3c-5.8,5.6-13,8.3-21.6,8.3
		C88.4,231.3,81.2,228.5,75.4,222.9z"/>
</g>
<g class="st0">
	<path class="st2" d="M512,161.7c-8.8-0.2-16,6.5-16.4,15.3c-0.5,9,7,16.7,16.1,16.6c8.8,0,15.9-7,15.9-15.8
		C527.6,169.1,520.7,162,512,161.7z"/>
	<path class="st2" d="M535.6,164.8c-2.3-7.7-8.8-17.4-20.2-24.9c-3.1-0.8-6.3-1.2-9.6-1.2c-19.5,0.3-35,15.6-35.2,34.7
		c-0.2,19,16.3,34.8,36,34.8c19.3-0.1,35-15.6,35-34.6c0-5.9-1.5-11.5-4.2-16.5c0.8,1.6,1.4,3.2,1.8,4.7L535.6,164.8z M506.1,202.9
		c-16.5,0-30-13.2-30-29.4c0-16.2,13.4-29.4,30-29.4c16.5,0,30,13.2,30,29.4C536,189.7,522.6,202.9,506.1,202.9z"/>
	<path class="st2" d="M577.8,163.8l-4.6-2.1c0.6-1.9,1.4-4,2.5-6.1c-3.2,5.2-5.1,11.4-5,17.9c0.1,19,15.8,34.5,35,34.6
		c19.8,0.1,36.2-15.8,36-34.8c-0.2-19-15.7-34.4-35.2-34.7c-3.5-0.1-7,0.4-10.2,1.3C586,147.4,580,156.5,577.8,163.8z M636.2,173.5
		c0,16.2-13.4,29.4-30,29.4c-16.5,0-30-13.2-30-29.4c0-16.2,13.4-29.4,30-29.4C622.8,144.1,636.2,157.2,636.2,173.5z"/>
	<path class="st2" d="M600.7,193.7c9.1,0,16.6-7.7,16.1-16.6c-0.5-8.8-7.7-15.5-16.4-15.3c-8.8,0.2-15.6,7.3-15.6,16.2
		C584.8,186.6,591.9,193.6,600.7,193.7z"/>
	<path class="st2" d="M550.2,193.9c-8.6,2.6-12.3,9.9-9.4,17.3c3.6,9,6.2,14.2,13.2,23.7c0.5,0.7,1.4,1,2.2,1"/>
	<path class="st2" d="M556.2,236c0.8,0,1.7-0.3,2.2-1c6.9-9.5,9.6-14.7,13.2-23.7c2.9-7.4-0.8-14.7-9.4-17.3"/>
	<path class="st1" d="M643.7,116c-4.6,4.5-12.2,10.5-26.1,14.3c-8.6,2.3-15.7,6-21.2,9.9c3.2-0.9,6.7-1.4,10.2-1.3
		c19.5,0.3,35,15.6,35.2,34.7c0.2,19-16.3,34.8-36,34.8c-19.3-0.1-35-15.6-35-34.6c0-6.5,1.8-12.7,5-17.9
		c5.4-10.4,17.1-23.8,36.4-29.1c14.4-4,22.9-9.6,27.4-14.2c0,0-0.1-0.1-0.1-0.1c0,0,13.1-11.8,10.4-35.2c0,0-6.5,4.9-10.9,7.9
		c-4.4,2.9-19.1,14-35.7,14.3c0,0-4.9-0.1-12.4-2c-10.4-2.6-22-4.5-34.7-4.6c-12.7,0.1-24.3,2-34.7,4.6c-7.5,1.9-12.4,2-12.4,2
		C492.4,99,477.7,87.9,473.3,85c-4.4-2.9-10.9-7.9-10.9-7.9c-2.6,23.4,10.4,35.2,10.4,35.2c0,0,0,0-0.1,0.1
		c4.5,4.6,13,11.3,27.5,15.2c20.2,5.6,32.1,18.8,37.1,29.5c2.7,4.9,4.2,10.5,4.2,16.5c-0.1,19-15.8,34.5-35,34.6
		c-19.8,0.1-36.2-15.8-36-34.8c0.2-19,15.7-34.4,35.2-34.7c3.3-0.1,6.6,0.4,9.6,1.2c-5.2-3.4-11.4-6.3-18.7-8.3
		c-15-4.1-23.7-11.2-28-15.8c-18.4,16.6-23.7,34.6-25.7,58.9c0.6,18.6,2.3,35.6,13.9,52.6c0,0,19.1,34.6,99.2,34.6
		c80.1,0,99.2-34.6,99.2-34.6c11.6-17,13.3-34,13.9-52.6C667.3,150.5,662.1,132.5,643.7,116z M556.2,236c-0.8,0-1.7-0.3-2.2-1
		c-6.9-9.5-9.6-14.7-13.2-23.7c-2.9-7.4,0.8-14.7,9.4-17.3c0,0,5.8-2.1,12,0c8.5,2.9,12.3,9.9,9.4,17.3c-3.6,9-6.2,14.2-13.2,23.7
		C557.8,235.6,557,236,556.2,236"/>
	<path class="st1" d="M506.1,144.1c-16.5,0-30,13.2-30,29.4c0,16.2,13.4,29.4,30,29.4c16.5,0,30-13.2,30-29.4
		C536,157.2,522.6,144.1,506.1,144.1z M511.6,193.7c-9.1,0-16.6-7.7-16.1-16.6c0.5-8.8,7.7-15.5,16.4-15.3
		c8.8,0.2,15.6,7.3,15.6,16.2C527.5,186.6,520.4,193.6,511.6,193.7z"/>
	<path class="st1" d="M576.3,173.5c0,16.2,13.4,29.4,30,29.4c16.5,0,30-13.2,30-29.4c0-16.2-13.4-29.4-30-29.4
		C589.7,144.1,576.3,157.2,576.3,173.5z M600.3,161.7c8.8-0.2,16,6.5,16.4,15.3c0.5,9-7,16.7-16.1,16.6c-8.8,0-15.9-7-15.9-15.8
		C584.8,169.1,591.6,162,600.3,161.7z"/>
</g>
</svg>
