<?xml version="1.0" encoding="utf-8"?>
<!-- Generator: Adobe Illustrator 20.1.0, SVG Export Plug-In . SVG Version: 6.00 Build 0)  -->
<svg version="1.1" id="Layer_1" xmlns="http://www.w3.org/2000/svg" xmlns:xlink="http://www.w3.org/1999/xlink" x="0px" y="0px"
	 viewBox="0 0 55.5 70.5" style="enable-background:new 0 0 55.5 70.5;" xml:space="preserve">
<style type="text/css">
	.st0{fill:#FFFFFF;}
</style>
<g>
	<path class="st0" d="M25.8,36.8c1.4-2.1,3.5-4.3,6.2-6.8c2-1.8,3.5-3.3,4.4-4.6c0.9-1.2,1.4-2.6,1.4-4.2c0-2.2-0.9-4-2.7-5.3
		C33.3,14.7,31,14,28,14c-2.8,0-5.4,0.6-7.6,1.8c-2.2,1.2-4.1,2.8-5.6,4.9l-11-6.4c2.5-3.9,6-6.9,10.3-9c4.3-2.1,9.4-3.2,15.3-3.2
		c6.9,0,12.5,1.5,16.7,4.4c4.2,3,6.3,7.1,6.3,12.3c0,2.5-0.4,4.6-1.2,6.5c-0.8,1.9-1.8,3.5-3,4.8c-1.2,1.3-2.7,2.8-4.6,4.5
		c-2.2,2-3.9,3.7-4.9,5c-1,1.4-1.5,3-1.5,4.9H23.7C23.7,41.5,24.4,38.9,25.8,36.8z M24.4,65c-1.7-1.6-2.5-3.5-2.5-5.8
		c0-2.3,0.8-4.2,2.4-5.8c1.6-1.5,3.7-2.3,6.2-2.3s4.6,0.8,6.2,2.3c1.6,1.5,2.4,3.5,2.4,5.8c0,2.3-0.8,4.2-2.5,5.8
		c-1.7,1.6-3.7,2.4-6.2,2.4C28.1,67.4,26,66.6,24.4,65z"/>
</g>
</svg>
