<?xml version="1.0" encoding="utf-8"?>
<!-- Generator: Adobe Illustrator 20.1.0, SVG Export Plug-In . SVG Version: 6.00 Build 0)  -->
<svg version="1.1" id="Layer_1" xmlns="http://www.w3.org/2000/svg" xmlns:xlink="http://www.w3.org/1999/xlink" x="0px" y="0px"
	 viewBox="0 0 169.5 85" style="enable-background:new 0 0 169.5 85;" xml:space="preserve">
<style type="text/css">
	.st0{fill:#FFFFFF;}
</style>
<g>
	<path class="st0" d="M81.8,38.3c1.4-2.1,3.5-4.3,6.2-6.8c2-1.8,3.5-3.3,4.4-4.6c0.9-1.2,1.4-2.6,1.4-4.2c0-2.2-0.9-4-2.7-5.3
		c-1.8-1.3-4.2-1.9-7.1-1.9c-2.8,0-5.4,0.6-7.6,1.8c-2.2,1.2-4.1,2.8-5.6,4.9l-11-6.4c2.5-3.9,6-6.9,10.3-9
		c4.3-2.1,9.4-3.2,15.3-3.2c6.9,0,12.5,1.5,16.7,4.4c4.2,3,6.3,7.1,6.3,12.3c0,2.5-0.4,4.6-1.2,6.5c-0.8,1.9-1.8,3.5-3,4.8
		c-1.2,1.3-2.7,2.8-4.6,4.5c-2.2,2-3.9,3.7-4.9,5c-1,1.4-1.5,3-1.5,4.9H79.7C79.7,43,80.4,40.4,81.8,38.3z M80.4,66.5
		c-1.7-1.6-2.5-3.5-2.5-5.8c0-2.3,0.8-4.2,2.4-5.8c1.6-1.5,3.7-2.3,6.2-2.3s4.6,0.8,6.2,2.3c1.6,1.5,2.4,3.5,2.4,5.8
		c0,2.3-0.8,4.2-2.5,5.8c-1.7,1.6-3.7,2.4-6.2,2.4C84.1,68.9,82,68.1,80.4,66.5z"/>
</g>
<g>
	<path class="st0" d="M143.2,59.5c1.4-1,3.3-2,5.7-3c1.7-0.7,3.1-1.4,4-2c0.9-0.6,1.5-1.4,1.9-2.4c0.5-1.5,0.4-2.8-0.5-4.1
		c-0.9-1.3-2.3-2.3-4.2-3c-1.9-0.7-3.7-0.9-5.4-0.6c-1.7,0.3-3.3,0.9-4.8,1.9l-5.7-6.8c2.6-1.9,5.5-3.1,8.9-3.5
		c3.3-0.4,6.9,0.1,10.8,1.5c4.6,1.6,7.9,3.9,9.9,6.9c2.1,2.9,2.5,6.1,1.2,9.6c-0.6,1.6-1.4,3-2.3,4c-1,1-2,1.8-3.1,2.4
		c-1.1,0.6-2.4,1.2-4.1,1.9c-1.9,0.8-3.4,1.5-4.4,2.1c-1,0.7-1.7,1.6-2.2,2.9l-9-3.2C140.7,62.1,141.8,60.5,143.2,59.5z M135.6,77.6
		c-0.7-1.4-0.8-2.9-0.3-4.4c0.5-1.5,1.5-2.6,3-3.2c1.4-0.6,3-0.6,4.7,0s2.9,1.6,3.6,3c0.7,1.4,0.8,2.8,0.2,4.4
		c-0.5,1.5-1.5,2.6-3,3.3c-1.5,0.7-3,0.7-4.6,0.1C137.5,80.1,136.3,79.1,135.6,77.6z"/>
</g>
<g>
	<path class="st0" d="M22.6,63c0.4-1.7,1.2-3.7,2.4-6c0.9-1.7,1.4-3,1.8-4.1c0.3-1,0.3-2.1-0.1-3.1c-0.5-1.5-1.6-2.4-3-2.8
		c-1.5-0.4-3.2-0.3-5.1,0.5c-1.9,0.7-3.4,1.7-4.5,3c-1.2,1.3-2,2.8-2.4,4.6l-8.7-1.5c0.7-3.1,2.2-5.9,4.5-8.4
		c2.3-2.4,5.4-4.4,9.3-5.8c4.5-1.7,8.5-2.1,12-1.2c3.5,0.9,5.8,3.1,7.1,6.5c0.6,1.6,0.9,3.1,0.8,4.6c-0.1,1.4-0.3,2.7-0.8,3.8
		c-0.5,1.1-1.1,2.5-1.9,4c-1,1.8-1.6,3.3-2,4.5c-0.3,1.1-0.3,2.3,0.2,3.6l-8.9,3.3C22.3,66.6,22.1,64.7,22.6,63z M28.5,81.8
		C27,81.1,26,80,25.4,78.5s-0.5-3,0.2-4.4s1.9-2.4,3.5-3s3.2-0.6,4.7,0c1.4,0.6,2.4,1.7,3,3.2s0.5,3-0.2,4.4
		c-0.7,1.5-1.9,2.5-3.5,3.1S30,82.4,28.5,81.8z"/>
</g>
</svg>
