<?xml version="1.0" encoding="utf-8"?>
<!-- Generator: Adobe Illustrator 20.1.0, SVG Export Plug-In . SVG Version: 6.00 Build 0)  -->
<svg version="1.1" id="Layer_1" xmlns="http://www.w3.org/2000/svg" xmlns:xlink="http://www.w3.org/1999/xlink" x="0px" y="0px"
	 viewBox="0 0 36.5 50" style="enable-background:new 0 0 36.5 50;" xml:space="preserve">
<style type="text/css">
	.st0{fill:#FFFFFF;}
</style>
<g>
	<path class="st0" d="M11.2,26.5c1.4-1,3.3-2,5.7-3c1.7-0.7,3.1-1.4,4-2c0.9-0.6,1.5-1.4,1.9-2.4c0.5-1.5,0.4-2.8-0.5-4.1
		c-0.9-1.3-2.3-2.3-4.2-3c-1.9-0.7-3.7-0.9-5.4-0.6c-1.7,0.3-3.3,0.9-4.8,1.9L2.2,6.5C4.7,4.6,7.7,3.4,11,3.1
		c3.3-0.4,6.9,0.1,10.8,1.5c4.6,1.6,7.9,3.9,9.9,6.9c2.1,2.9,2.5,6.1,1.2,9.6c-0.6,1.6-1.4,3-2.3,4c-1,1-2,1.8-3.1,2.4
		c-1.1,0.6-2.4,1.2-4.1,1.9c-1.9,0.8-3.4,1.5-4.4,2.1c-1,0.7-1.7,1.6-2.2,2.9l-9-3.2C8.7,29.1,9.8,27.5,11.2,26.5z M3.6,44.6
		c-0.7-1.4-0.8-2.9-0.3-4.4c0.5-1.5,1.5-2.6,3-3.2c1.4-0.6,3-0.6,4.7,0s2.9,1.6,3.6,3c0.7,1.4,0.8,2.8,0.2,4.4
		c-0.5,1.5-1.5,2.6-3,3.3c-1.5,0.7-3,0.7-4.6,0.1C5.5,47.1,4.3,46.1,3.6,44.6z"/>
</g>
</svg>
