<?xml version="1.0" encoding="utf-8"?>
<!-- Generator: Adobe Illustrator 20.1.0, SVG Export Plug-In . SVG Version: 6.00 Build 0)  -->
<svg version="1.1" id="Layer_1" xmlns="http://www.w3.org/2000/svg" xmlns:xlink="http://www.w3.org/1999/xlink" x="0px" y="0px"
	 viewBox="0 0 42 50" style="enable-background:new 0 0 42 50;" xml:space="preserve">
<style type="text/css">
	.st0{fill:#FFFFFF;}
</style>
<g>
	<path class="st0" d="M24.1,28c0.4-1.7,1.2-3.7,2.4-6c0.9-1.7,1.4-3,1.8-4.1c0.3-1,0.3-2.1-0.1-3.1c-0.5-1.5-1.6-2.4-3-2.8
		c-1.5-0.4-3.2-0.3-5.1,0.5c-1.9,0.7-3.4,1.7-4.5,3c-1.2,1.3-2,2.8-2.4,4.6l-8.7-1.5c0.7-3.1,2.2-5.9,4.5-8.4
		c2.3-2.4,5.4-4.4,9.3-5.8c4.5-1.7,8.5-2.1,12-1.2c3.5,0.9,5.8,3.1,7.1,6.5c0.6,1.6,0.9,3.1,0.8,4.6c-0.1,1.4-0.3,2.7-0.8,3.8
		c-0.5,1.1-1.1,2.5-1.9,4c-1,1.8-1.6,3.3-2,4.5c-0.3,1.1-0.3,2.3,0.2,3.6l-8.9,3.3C23.8,31.6,23.6,29.7,24.1,28z M30,46.8
		c-1.5-0.6-2.5-1.7-3.1-3.2s-0.5-3,0.2-4.4s1.9-2.4,3.5-3s3.2-0.6,4.7,0c1.4,0.6,2.4,1.7,3,3.2s0.5,3-0.2,4.4
		c-0.7,1.5-1.9,2.5-3.5,3.1S31.5,47.4,30,46.8z"/>
</g>
</svg>
