<?xml version="1.0" encoding="utf-8"?>
<!-- Generator: Adobe Illustrator 20.1.0, SVG Export Plug-In . SVG Version: 6.00 Build 0)  -->
<svg version="1.1" id="Layer_1" xmlns="http://www.w3.org/2000/svg" xmlns:xlink="http://www.w3.org/1999/xlink" x="0px" y="0px"
	 viewBox="0 0 83 99" style="enable-background:new 0 0 83 99;" xml:space="preserve">
<style type="text/css">
	.st0{fill:#FFFFFF;}
</style>
<g>
	<g>
		<g>
			<path class="st0" d="M47.3,43.8c-0.7,17.6-27.2,17.5-27.2,0C20.1,26.3,46.6,26.2,47.3,43.8c0.2,4.8,7.7,4.8,7.5,0
				c-0.4-11.5-9.3-21.1-21.1-21.1c-11.5,0-21.1,9.7-21.1,21.1c0,11.5,9.6,21.1,21.1,21.1c11.8,0,20.7-9.6,21.1-21.1
				C55,39,47.5,39,47.3,43.8z"/>
		</g>
	</g>
	<g>
		<g>
			<path class="st0" d="M43.2,58.6C50.1,65,57.1,71.3,64,77.7c3.6,3.3,8.9-2,5.3-5.3C62.4,66,55.4,59.7,48.5,53.3
				C45,50.1,39.6,55.3,43.2,58.6L43.2,58.6z"/>
		</g>
	</g>
</g>
</svg>
