<?xml version="1.0" encoding="utf-8"?>
<!-- Generator: Adobe Illustrator 20.1.0, SVG Export Plug-In . SVG Version: 6.00 Build 0)  -->
<svg version="1.1" id="Layer_1" xmlns="http://www.w3.org/2000/svg" xmlns:xlink="http://www.w3.org/1999/xlink" x="0px" y="0px"
	 viewBox="0 0 68.5 85" style="enable-background:new 0 0 68.5 85;" xml:space="preserve">
<style type="text/css">
	.st0{fill:#4C4C4C;}
	.st1{fill:#3E21CC;}
	.st2{fill:none;stroke:#3E21CC;stroke-width:7;stroke-miterlimit:10;}
	.st3{fill:#4A34B3;}
	.st4{fill:#FFFFFF;}
</style>
<g>
	<line class="st0" x1="9.5" y1="22.5" x2="61.5" y2="22.5"/>
	<g>
		<path class="st1" d="M9,27.4c17.6,0,35.2,0,52.8,0c6.8,0,6.8-10.5,0-10.5c-17.6,0-35.2,0-52.8,0C2.3,16.9,2.3,27.4,9,27.4L9,27.4z
			"/>
	</g>
</g>
<path class="st2" d="M21.2,19.8v-6.6c0-3.6,2.8-6.6,6.3-6.6h15.8c3.5,0,6.3,3,6.3,6.6v6.6"/>
<g>
	<path class="st1" d="M12.3,33.2h46.2L53,74.5c-0.4,2.8-2.7,4.8-5.5,4.8H23c-2.6,0-4.7-1.9-5.1-4.4L12.3,33.2z"/>
	<g>
		<path class="st1" d="M12.3,36.2c15.4,0,30.8,0,46.2,0c-1-1-2-2-3-3c-0.9,7.1-1.9,14.1-2.8,21.2c-0.6,4.8-1.3,9.5-1.9,14.3
			c-0.4,2.8,0.1,6.8-3.4,7.8c-3.1,0.9-7.5,0-10.7,0c-4.1,0-9,0.8-13,0c-3.3-0.6-3-2.5-3.4-5.3c-0.6-4.4-1.2-8.8-1.8-13.1
			c-1.1-8.3-2.2-16.5-3.3-24.8c-0.5-3.8-6.5-3.8-6,0c1.1,8.6,2.3,17.2,3.4,25.7c0.8,6.2,0.1,20.5,7.6,23c3.7,1.2,8.6,0.5,12.4,0.5
			c4.7,0,9.5,0.2,14.3,0c10.1-0.5,9.5-11.5,10.5-19c1.3-10.1,2.7-20.1,4-30.2c0.2-1.6-1.5-3-3-3c-15.4,0-30.8,0-46.2,0
			C8.5,30.2,8.5,36.2,12.3,36.2z"/>
	</g>
</g>
<g>
	<line class="st3" x1="35.5" y1="38.5" x2="35.5" y2="72.5"/>
	<g>
		<path class="st4" d="M32.9,38.8c0,11.3,0,22.7,0,34c0,2.9,4.5,2.9,4.5,0c0-11.3,0-22.7,0-34C37.4,35.9,32.9,35.9,32.9,38.8
			L32.9,38.8z"/>
	</g>
</g>
<g>
	<line class="st3" x1="49.5" y1="38.8" x2="47.1" y2="72.7"/>
	<g>
		<path class="st4" d="M47.3,38.8c-0.8,11.3-1.6,22.6-2.4,33.9c-0.2,2.9,4.3,2.9,4.5,0c0.8-11.3,1.6-22.6,2.4-33.9
			C52,35.9,47.5,35.9,47.3,38.8L47.3,38.8z"/>
	</g>
</g>
<g>
	<line class="st3" x1="20.7" y1="38.8" x2="23.1" y2="72.7"/>
	<g>
		<path class="st4" d="M18.5,38.8c0.8,11.3,1.6,22.6,2.4,33.9c0.2,2.9,4.7,2.9,4.5,0c-0.8-11.3-1.6-22.6-2.4-33.9
			C22.7,35.9,18.2,35.9,18.5,38.8L18.5,38.8z"/>
	</g>
</g>
</svg>
