<?xml version="1.0" encoding="utf-8"?>
<!-- Generator: Adobe Illustrator 20.1.0, SVG Export Plug-In . SVG Version: 6.00 Build 0)  -->
<svg version="1.1" id="Layer_1" xmlns="http://www.w3.org/2000/svg" xmlns:xlink="http://www.w3.org/1999/xlink" x="0px" y="0px"
	 viewBox="0 0 1526 240" style="enable-background:new 0 0 1526 240;" xml:space="preserve">
<style type="text/css">
	.st0{fill:#FFFFFF;}
</style>
<g>
	<path class="st0" d="M140.3,43c-0.2-2.2-0.3-3.8-0.5-6c-42.7,0-85.2,0-128.2,0c0-7.8,0-15,0-22.5c174.3,0,348.5,0,523.1,0
		c0,7.1,0,14.4,0,22.1c-42.5,0-85.1,0-127.9,0c-0.4,2.4-0.6,4.3-0.9,6.3c-11.3,1.4-22.5,2.9-33.7,4.3c-19.7,2.3-25.5,8.2-25.8,28.2
		c-0.4,25.5-0.2,51-0.2,76.5c0,10.5-2.1,20.5-6.4,30.1c-13.9,31.1-47.9,48.7-80.9,41.8c-33.9-7-58.3-36.4-58.5-70.8
		c-0.2-22.5,0.1-45-0.1-67.5c0-6.1-0.4-12.3-1.1-18.4c-1.3-11.1-5.1-16-16.1-18c-13.2-2.5-26.7-3.8-40-5.6
		C142.2,43.2,141.4,43.1,140.3,43z M531.8,17.6c-172.7,0-345,0-517.3,0c0,5.5,0,10.6,0,16.1c2.4,0,4.3,0,6.3,0
		c65,0,130,0.1,194.9-0.1c4.7,0,5.9,1.3,5.8,5.8c-0.2,18.3-0.2,36.7-0.1,55c0.1,21.7-0.6,43.4,0.6,65c2,36.5,44.8,58.6,76.2,39.9
		c18.3-10.8,26.5-27.2,26.4-48.3c-0.2-37,0.1-74-0.1-111c0-4.8,0.9-6.5,6.2-6.5c65,0.2,130,0.1,194.9,0.1c1.9,0,3.9,0,6,0
		C531.8,28,531.8,23,531.8,17.6z"/>
	<path class="st0" d="M976.3,137.7c-0.5,23.7-1.8,47.5-1,71.1c0.2,5.1,7.7,10,11.3,14.4c-11.4,0-24.7,0-38.2,0
		c0.1-0.5,0.2-1.8,0.6-1.9c11.9-2.7,13.6-12.3,14.3-22c1.6-21.1,3.2-42.3,4-63.5c0.7-18,0.2-18-16.3-25.2c3.2-0.6,4.9-1.1,6.7-1.1
		c8-0.1,16.1-1,23.8,0.3c4,0.7,8.8,4.7,10.8,8.5c9.9,18.8,18.8,38,28.3,57c3,6.1,6.4,12.1,10.3,19.4c1.9-3.5,3.3-5.8,4.5-8.3
		c10.2-22.2,20.6-44.4,30.4-66.8c3.4-7.7,7.2-11.1,16.3-9.1c6.3,1.4,13.2-0.5,20.8,0c-15,4-12.1,15.6-11.9,25.5
		c0.4,20.3,1,40.6,2.3,60.9c0.7,10.3-0.4,22.4,13.8,26.2c-15.3,0-30.5,0-46.3,0c0.7-0.7,1.4-2.2,2.4-2.4c6.5-1.3,8.9-6,9-11.7
		c0.2-10.7-0.2-21.5-0.2-32.2c0-13.4,0-26.7,0-40.1c-1.2-0.2-2.4-0.5-3.6-0.7c-1.4,2.6-2.9,5.2-4.1,7.9
		c-11,24.5-21.8,49.1-32.9,73.5c-1.3,2.8-4.3,4.8-6.5,7.2c-2-2.3-4.5-4.3-5.8-6.9c-12.2-24.3-24.2-48.7-36.3-73
		c-1.2-2.5-2.8-4.8-4.2-7.2C978,137.4,977.1,137.6,976.3,137.7z"/>
	<path class="st0" d="M1259.1,110.3c20.9-0.1,44-1.8,66.8,0c19.4,1.5,28.7,15.9,25.4,33.9c-2.1,11.5-10.3,17.6-21.6,22.7
		c12.8,21.5,19.4,47.3,48.1,55.6c-16.1,6.5-35.8,1.6-45-11.4c-5.7-8-11-16.5-14.9-25.4c-4.7-10.6-12.4-13.5-24.9-12.6
		c0.9,12.9,0.8,25.7,3.2,38.1c0.9,4.6,7.4,8.1,11,11.7c-15.9,0-33,0-51.5,0c2.4-1.2,4.4-1.7,5.6-3c3.4-3.7,9.1-7.6,9.2-11.5
		c0.8-27.7,1-55.5-0.2-83.1C1270.1,119.9,1262.8,114.9,1259.1,110.3z M1294.5,115.4c0,17.6,0,34.5,0,51.4c12,1.1,23.4,2.2,30.2-9.6
		c6.2-10.8,5.3-22.2-1.1-32.4C1317,114.3,1306.3,113.4,1294.5,115.4z"/>
	<path class="st0" d="M1132.6,221.8c17.4-3,16.3-15.7,16.3-27.7c0.1-19.4,0.1-38.9-0.1-58.3c-0.1-10.7-0.6-21.5-15.4-23.9
		c0.4-0.7,0.8-1.4,1.2-2.1c3.2,0,6.4,0.1,9.7,0c10.3-0.3,20.7-0.8,31-0.8c9.2-0.1,18.6-0.7,27.6,0.6c14,2.1,21.5,9.6,22.8,20.5
		c1.6,12.9-4.1,22.1-17.5,28c-2.1,1-4.4,1.8-7.5,3c6.1,1.9,11.5,3,16.6,5.1c10.5,4.4,16.8,12.1,17.5,23.8c0.8,12.9-3.8,22.7-15.4,29
		c-13.6,7.4-28.5,7.1-42.9,5.2c-12.6-1.7-24.8-2.4-37.2,0c-1.6,0.3-3.4-0.1-5.1-0.2C1133.7,223.2,1133.2,222.5,1132.6,221.8z
		 M1169.7,163.6c0.9,16.9,1,31.5,2.9,45.8c0.5,3.5,6.1,8.1,10.2,9.1c11.9,3.1,23-3.9,26.7-15.2c4.6-14.2-0.6-29.7-12.8-34.3
		C1188.9,166.1,1180.2,165.6,1169.7,163.6z M1170.7,136.8C1170.7,136.8,1170.7,136.8,1170.7,136.8c-0.1,5.7-0.5,11.4,0.1,16.9
		c0.2,2.1,2.7,5.3,4.6,5.7c14.5,2.8,26.2-5.4,28-19c1.9-14.7-6.9-25.7-21.6-27.1c-7.6-0.7-12.1,1.3-11.2,10
		C1171.1,127.9,1170.7,132.4,1170.7,136.8z"/>
	<path class="st0" d="M723.2,166.4c0.1-34.9,26.1-59.8,62.2-59.6c35.5,0.2,61.6,25.4,61.6,59.6c0,34.9-26,60-62.1,59.9
		C748.5,226.2,723.1,201.6,723.2,166.4z M824,167.1c-3.6-12.8-6-25.1-10.7-36.5c-4.9-12-15.3-18.2-28.5-18.2
		c-13.7,0-23.5,7.1-28.9,19.1c-10.8,23.9-10.8,48.2,0.8,71.8c5.4,11.1,14.9,17.8,27.9,17.8c12.8-0.1,23.1-5.8,28.1-17.3
		C817.7,192.1,820.3,179.5,824,167.1z"/>
	<path class="st0" d="M1513.3,222.9c-17.5,0-33.8,0-50.2,0c0,0-0.2-0.9,0-1c11.5-6.7,11.5-6.7,7.4-19.9c-6.8-22-6.8-22.1-29.9-21.9
		c-20.2,0.2-14.8-2.6-22.4,15.7c-1,2.5-1.6,5.1-2.5,7.7c-2.8,8.3-4.6,16.2,7.3,19.5c-12.9,0-25.9,0-40.5,0
		c18.4-9.1,24.1-26.1,31-41.9c9.6-22.2,18.7-44.6,27.9-67c1.8-4.3,3.4-7.7,9.3-7.8c6.1-0.1,7.4,3.7,9.1,7.9
		c8.6,22.3,17.1,44.6,26,66.7C1492,196.5,1497,213,1513.3,222.9z M1460.8,173.5c-5.4-14.7-10.5-28.2-16.4-44.3
		c-6.4,16.3-11.7,29.7-17.4,44.3C1438.8,173.5,1448.8,173.5,1460.8,173.5z"/>
	<path class="st0" d="M690.2,110.6c0,8.7,0.2,17.4-0.1,26.2c-0.1,1.9-1.8,3.7-2.7,5.5c-1.1-1.5-2.9-2.8-3.2-4.4
		c-2.7-13-10.2-21.7-23.2-24.4c-14.9-3.1-28.6-0.4-39.3,11.5c-18,20.2-17.9,61.5,0.2,81.6c11.8,13.2,33.8,18.3,49.2,9.8
		c6-3.3,9.9-10.4,14.6-15.9c1.6-1.8,2.7-4,4-6.1c0.7,0.3,1.4,0.6,2.1,1c-0.4,7.2-0.7,14.4-1.3,21.6c-0.1,1-1.9,2.2-3.2,2.8
		c-21.2,9.6-62.1,10.5-84-7.1c-20.5-16.5-24.5-38.1-18.6-62.2c5.6-23,25.7-39.9,50.3-42.1c12.4-1.1,25,0.4,37.4,0.9
		C678.8,109.3,685.2,110.1,690.2,110.6z"/>
	<path class="st0" d="M868.8,222.8c18.1-5.5,14.2-20.8,14.5-33.8c0.4-17.6,0.2-35.2-0.1-52.8c-0.3-16.8-1.2-17.9-16-25.8
		c18.6,0,35.8,0,52.6,0c-4,3.2-9.4,5.8-11.7,10.1c-2.5,4.7-2.7,10.9-2.8,16.5c-0.3,19.7-0.6,39.4,0,59.1c0.5,16.9,1,16.9,15.3,26.8
		C903.2,222.8,886,222.8,868.8,222.8z"/>
	<path class="st0" d="M1439.6,75.5c8.9-7.8,8.6-49.8-1.3-59.2c12.1,0,23.7-0.4,35.3,0.1c18,0.8,29.7,11.6,30.6,27.6
		c1.1,17.8-7.8,29-26.3,32.4c-5.2,1-10.7,0.8-16.1,0.6C1454.5,76.7,1447.2,76,1439.6,75.5z M1457.1,46.5c0,7.4,0.2,13-0.1,18.6
		c-0.4,6.6,2.8,9,9.1,9.2c9.7,0.2,18-2.5,22.2-11.9c5.4-12,5.1-24.1-2.9-34.8c-6.9-9.2-16.8-10.2-27.6-7.8c0,8,0,15.6,0,24.8
		c6.6-1.6,12.2-3,17.5-4.3c0,3.2,0,7.3,0,10.3C1469.6,49.4,1464,48.1,1457.1,46.5z"/>
	<path class="st0" d="M1113.3,16.9c8.3-0.6,16-2.1,23.6-1.6c8.5,0.5,17.3,1.4,25.1,4.5c12.3,4.7,16.7,15.5,16.2,28.2
		c-0.5,12.5-6.3,22.2-18.4,25.8c-8.3,2.5-17.4,2.7-26.3,3.1c-6.7,0.3-13.5-0.8-20.5-1.4c8.8-8,5.1-19.1,5.1-29.1
		C1118,36.5,1121.8,25.5,1113.3,16.9z M1130.4,18.8c0,16.6-0.2,32.9,0.3,49.2c0.1,2.1,3.7,5.2,6.1,5.8c12.9,2.7,24.3-4.3,27.1-17.1
		C1168.8,34.6,1158.4,14.5,1130.4,18.8z"/>
	<path class="st0" d="M991.2,77.1c-13.4,2.7-20.5-6.7-26.4-18.3c-4.2-8.2-4.3-8.1-13.7-9.2c0.8,9-3.8,18.6,6.4,26.4
		c-8.6,0-16.3,0-23.9,0c8.4-9.3,8.2-51.5-0.8-59.5c9.8-0.5,19.4-1.6,29-1.3c8.1,0.3,16.4,1.8,19.4,11.3c2.3,7.3-0.5,12.7-11.9,21.2
		C976.6,57.6,984,67.5,991.2,77.1z M951.4,46.1c6.8,1.3,13.6,1,15.7-5.5c1.7-5.1,1.5-12.2-1-16.7c-2.1-3.6-8.8-4.6-14.7-7.3
		C951.4,28.3,951.4,37.1,951.4,46.1z"/>
	<path class="st0" d="M1264.2,75.5c9.5-7.7,9.7-50.9-0.2-59.2c13.8,0,27.5-1.1,40.9,0.3c15.6,1.6,25,13.4,25.3,28.8
		c0.3,15.9-7.9,27-23.5,30.3c-6.3,1.4-13,1.5-19.5,1.4C1279.6,77,1272,76,1264.2,75.5z M1282.5,18.7c0,16.8-0.2,32.8,0.2,48.8
		c0.1,2.1,2.8,5.3,5,6.1c8.7,3.1,20.5-1.2,25.1-9.2c6.6-11.5,6.5-23.5,0-34.9C1306.4,18.3,1295.6,17.2,1282.5,18.7z"/>
	<path class="st0" d="M668.1,76c9.6-10.3,9.5-51.6-0.4-59.6c11-2.4,18.7,1.4,25.5,10.7c8.2,11.2,18.2,21.1,28.4,31.2
		c0.2-14.4,4.2-28.9-3.8-42.1c3.8,0,9,0,14,0c-8.1,19.6-2.5,40.2-5.4,62.4c-3.8-2.9-7.2-4.6-9.5-7.3c-11.9-13.6-23.6-27.4-36.6-40.6
		c0.5,15.3-5,31,5,45.2C680.3,76,674.1,76,668.1,76z"/>
	<path class="st0" d="M1389.4,16c0,4.6,0,8.1,0,14.5c-5.2-13.2-14.3-10.3-23.3-10.3c0,7.4,0,14.7,0,23.9c7-1.3,13.4-2.5,19.9-3.7
		c0,2.6,0,6.9,0,9.8c-6.2-1.3-12.5-2.7-18.6-4c-3.8,11.5-2.7,23.3,1.7,25.4c8.1,3.8,19.3-0.6,24.7-9.8c2.6,11.5,0,15.3-10.9,15.4
		c-11.8,0.1-23.6,0-36.7,0c10-9.7,10.1-52.1,0.6-61.1C1361.5,16,1375.3,16,1389.4,16z"/>
	<path class="st0" d="M911.1,16.1c0,4.3,0,8.1,0,11.8c-5.3-11.2-14.8-7.8-24-7.9c0,7.7,0,14.8,0,23.9c7-1.3,13.5-2.4,20.2-3.7
		c0,2.6,0,6.9,0,9.7c-6.4-1.2-12.9-2.4-22.8-4.3c2.4,10.5,2,19.8,6.5,25.4c4.6,5.7,18-0.2,26.1-10.6c-1,5.9-1.7,10.3-2.6,15.7
		c-15.2,0-30.4,0-45.7,0c9.5-9.4,9.3-52.2-1.5-60C882.5,16.1,896.5,16.1,911.1,16.1z"/>
	<path class="st0" d="M648.1,16.2c-1.1,5.7-2.6,11.2-3.1,16.8c-0.9,9.2-0.2,18.6-2.1,27.5c-3,13.6-13,18.6-30.1,16.9
		c-12.5-1.2-19.5-8.5-20.4-21.8c-0.6-9.5-0.3-19.1-1.2-28.6c-0.3-3.6-2.6-7.1-4-10.6c6.2,0,13.7,0,20.1,0c-1.3,4.5-3.7,9.2-3.8,13.9
		c-0.2,10.1,0.3,20.3,1.6,30.3c1.1,8.4,7.6,11.9,15.4,12.2c8.2,0.3,15.8-2.4,16.9-11.2c1.6-12.6,1.5-25.5,1.5-38.2
		c0-2.4-3.4-4.7-5.2-7.1C639,16.2,644.2,16.2,648.1,16.2z"/>
	<path class="st0" d="M1204,76c-5.5,0-11,0-17,0c14.4-15.5,18.4-36.3,27.4-54.5c1.4-2.8,4.4-4.7,6.6-7c1.9,2.4,4.4,4.4,5.5,7.1
		c5,12.1,9.3,24.5,14.4,36.6c2.6,6.2,6.5,11.8,9.9,17.9c-6.7,0-14.1,0-21.4,0c2.9-4.9,1.5-20.4-3-21.4c-6.4-1.4-13.8-1.6-19.9,0.3
		C1201.7,56.5,1200.7,71.3,1204,76z M1217.3,26c-3.5,9.2-6.1,16.1-9,23.6c6.6,0,11.5,0,17.6,0C1223.1,42.1,1220.6,35.3,1217.3,26z"
		/>
	<path class="st0" d="M1009.3,60.5c4.8,4.5,9.2,10.4,15.1,13.5c5.5,2.9,12.1,0.7,14.9-5.9c2.9-6.7-0.3-11.5-6.4-14.6
		c-4.8-2.4-9.8-4.5-14.4-7.2c-7.1-4.1-11.2-10.1-8.9-18.6c2.3-8.5,8.6-12.8,17.2-13.1c6.4-0.2,12.9,0.6,19.3,0.9c0,4.8,0,9.6,0,14.3
		c-0.5,0.2-1,0.4-1.4,0.6c-1-2.1-1.4-5-3-6c-4.2-2.7-8.8-5.7-13.5-6.3c-2.6-0.3-8.4,4.2-8.2,5.9c0.5,4.4,2.8,9.4,6,12.4
		c3.8,3.5,9.3,5.1,14.1,7.6c7.7,4,11.7,10,10,18.9c-1.7,9-8.2,13.5-16.3,14.1c-8.1,0.6-16.4-1-24.5-1.6
		C1009.3,69.2,1009.3,63.8,1009.3,60.5z"/>
	<path class="st0" d="M791.5,16.2c7,0,14.1,0,21.1,0c-2.6,7.4,3.1,25.9,13.6,43.5c9.2-13.9,15.1-36.8,11-43.7c5.6,0,11.2,0,15.6,0
		c-3.4,5.7-7.6,11.7-10.5,18.2c-5.3,12-9.6,24.4-14.7,36.5c-1,2.4-3.3,4.3-5,6.5c-1.5-2-3.3-3.9-4.3-6.1
		c-6.5-14.4-12.6-29-19.3-43.3C797.3,23.8,794.2,20.3,791.5,16.2z"/>
	<path class="st0" d="M1093.8,76c-8.5,0-16.3,0-24.2,0c8.6-9.3,8.4-51.6-0.8-59.5c8.1,0,15.6,0,23,0c-8,8.6-4.6,19.5-4.4,29.5
		C1087.7,56.1,1083,67.6,1093.8,76z"/>
	<path class="st0" d="M751.3,16.2c8.3,0,16.1,0,24,0c-9.4,8.1-9.4,51,0.5,59.9c-8.5,0-16.5,0-24.5,0
		C760.2,67.1,760.6,25.6,751.3,16.2z"/>
</g>
</svg>
